<svg width="62" height="62" viewBox="0 0 62 62" fill="none" xmlns="http://www.w3.org/2000/svg">
<path d="M0.0413094 35.1189V47.9396C0.0413094 48.5099 0.503674 48.9723 1.07395 48.9723H3.52649C4.09676 48.9723 4.55913 48.5099 4.55913 47.9396C4.55913 47.3694 4.09676 46.907 3.52649 46.907H2.1066V35.1189C2.1066 33.4707 2.90135 31.9096 4.23256 30.9432C8.18552 28.0735 15.7802 23.76 25.2085 24.251L24.5362 29.4283C24.4627 29.9938 24.8617 30.5119 25.4272 30.5854C25.993 30.6588 26.5108 30.2597 26.5843 29.6943L27.2675 24.4337C33.3577 25.1969 39.0564 27.8667 43.8079 32.2042H17.7175C16.1494 32.2042 14.685 31.5044 13.7 30.2842C13.3418 29.8405 12.6916 29.7711 12.2478 30.1293C11.804 30.4875 11.7347 31.1377 12.0929 31.5815C13.4719 33.2897 15.5219 34.2695 17.7173 34.2695H46.1778L57.6659 37.4606C59.0017 37.8317 59.9347 39.0591 59.9347 40.4456V46.636H58.3857C57.8155 46.636 57.3531 47.0984 57.3531 47.6687C57.3531 48.239 57.8155 48.7013 58.3857 48.7013H60.9674C61.5376 48.7013 62 48.239 62 47.6687V40.4456C62 38.1349 60.4451 36.0891 58.2187 35.4707L46.8847 32.3223C35.6359 20.5741 18.1729 18.2706 3.01933 29.2719C1.15463 30.6257 0.0413094 32.8114 0.0413094 35.1189ZM40.7017 47.6939C40.7017 51.6796 43.9445 54.9224 47.9302 54.9224C51.916 54.9224 55.1587 51.6796 55.1587 47.6939C55.1587 43.7081 51.916 40.4653 47.9302 40.4653C43.9445 40.4653 40.7017 43.7081 40.7017 47.6939ZM42.767 47.6939C42.767 44.8469 45.0832 42.5306 47.9302 42.5306C50.7772 42.5306 53.0934 44.8469 53.0934 47.6939C53.0934 50.5409 50.7772 52.8571 47.9302 52.8571C45.0832 52.8571 42.767 50.541 42.767 47.6939ZM6.88258 47.6939C6.88258 51.6796 10.1253 54.9224 14.1111 54.9224C18.0968 54.9224 21.3396 51.6796 21.3396 47.6939C21.3396 43.7081 18.0968 40.4653 14.1111 40.4653C10.1253 40.4653 6.88258 43.7081 6.88258 47.6939ZM8.94787 47.6939C8.94787 44.8469 11.2641 42.5306 14.1111 42.5306C16.9581 42.5306 19.2743 44.8469 19.2743 47.6939C19.2743 50.5409 16.9581 52.8571 14.1111 52.8571C11.2641 52.8571 8.94787 50.541 8.94787 47.6939ZM24.1794 46.9194H37.4747C38.045 46.9194 38.5073 47.3817 38.5073 47.952C38.5073 48.5223 38.045 48.9847 37.4747 48.9847H24.1794C23.6091 48.9847 23.1467 48.5223 23.1467 47.952C23.1467 47.3817 23.6091 46.9194 24.1794 46.9194Z" fill="white"/>
</svg>
